<svg id="svg" version="1.1" width="1000" height="165" xmlns="http://www.w3.org/2000/svg" xmlns:xlink="http://www.w3.org/1999/xlink" style="display: block;"><g id="svgg"><path id="path0" d="" stroke="none" fill="#ffeaea" fill-rule="evenodd"></path><path id="path1" d="M71.600 32.004 L 71.600 64.007 91.700 63.904 L 111.800 63.800 111.800 58.600 L 111.800 53.400 99.100 53.294 L 86.400 53.189 86.400 26.594 L 86.400 0.000 79.000 0.000 L 71.600 0.000 71.600 32.004 M115.698 31.900 L 115.800 63.800 137.673 63.903 L 159.545 64.007 159.550 58.603 L 159.555 53.200 144.977 53.200 L 130.400 53.200 130.400 45.800 L 130.400 38.400 142.786 38.400 C 157.605 38.400,156.151 39.217,155.939 31.002 C 155.739 23.255,157.163 24.000,142.551 24.000 L 130.400 24.000 130.400 18.400 L 130.400 12.800 145.000 12.800 L 159.600 12.800 159.600 6.400 L 159.600 0.000 137.598 0.000 L 115.595 0.000 115.698 31.900 M181.600 1.000 C 181.600 2.108,181.638 2.100,177.100 2.004 L 174.400 1.946 174.400 3.724 C 174.400 4.911,174.175 5.684,173.723 6.051 C 173.263 6.424,173.143 6.440,173.347 6.100 C 173.565 5.737,173.250 5.600,172.193 5.600 C 170.804 5.600,170.742 5.659,170.810 6.900 C 170.934 9.159,170.901 9.200,169.000 9.200 C 167.237 9.200,167.200 9.227,167.194 10.500 C 167.186 12.260,166.747 12.830,165.152 13.155 C 163.324 13.528,163.277 14.005,163.241 32.400 C 163.207 49.608,163.150 49.119,165.206 49.447 L 166.716 49.689 166.983 52.344 C 167.371 56.216,167.449 56.366,169.227 56.651 C 170.623 56.874,170.800 57.028,170.800 58.023 C 170.800 59.894,171.695 60.400,175.006 60.400 L 177.954 60.400 178.077 62.100 L 178.200 63.800 183.700 63.911 L 189.200 64.023 189.200 65.011 L 189.200 66.000 196.400 66.000 L 203.600 66.000 203.600 65.009 L 203.600 64.019 210.457 63.909 C 217.839 63.792,217.694 63.836,218.174 61.540 C 218.367 60.615,218.621 60.463,220.180 60.339 L 221.964 60.197 222.082 61.999 L 222.200 63.800 229.500 63.879 L 236.800 63.958 236.800 62.202 L 236.800 60.446 238.500 60.323 L 240.200 60.200 240.253 56.800 L 240.306 53.400 241.776 52.985 C 243.394 52.529,243.985 51.867,243.994 50.500 L 244.000 49.600 255.000 49.600 L 266.000 49.600 266.000 53.974 C 266.000 59.509,266.304 60.400,268.190 60.400 C 269.596 60.400,269.600 60.406,269.600 62.209 L 269.600 64.019 276.968 63.981 L 284.336 63.944 284.371 59.214 C 284.415 53.419,284.344 53.200,282.412 53.200 L 280.910 53.200 280.713 48.410 C 280.497 43.177,280.192 42.400,278.351 42.400 L 277.200 42.400 277.200 39.080 C 277.200 35.289,276.916 34.800,274.720 34.800 L 273.200 34.800 273.200 29.814 C 273.200 24.364,273.039 24.000,270.626 24.000 C 269.602 24.000,269.600 23.995,269.600 20.447 C 269.600 16.596,269.483 16.421,266.900 16.405 C 266.023 16.400,266.000 16.289,265.995 12.100 C 265.987 6.402,265.875 6.053,263.953 5.746 L 262.400 5.498 262.400 2.749 L 262.400 0.000 253.200 0.000 L 244.000 0.000 244.000 4.577 L 244.000 9.154 242.300 9.277 L 240.600 9.400 240.600 12.800 L 240.600 16.200 238.800 16.623 L 237.000 17.045 236.925 19.623 C 236.884 21.040,236.839 23.415,236.825 24.900 L 236.800 27.600 235.000 27.600 L 233.200 27.600 233.200 31.147 L 233.200 34.695 231.567 34.914 C 229.455 35.197,229.649 34.691,229.345 40.708 L 229.079 45.960 227.439 46.080 L 225.800 46.200 225.684 49.700 L 225.569 53.200 224.413 53.200 C 223.777 53.200,222.977 53.480,222.635 53.822 C 222.072 54.386,222.002 53.349,221.906 42.922 L 221.800 31.400 209.146 31.314 L 196.492 31.227 196.448 36.614 L 196.404 42.000 201.802 42.000 L 207.200 42.000 207.200 45.777 L 207.200 49.554 205.500 49.677 C 203.808 49.799,203.799 49.808,203.677 51.500 L 203.554 53.200 199.577 53.236 C 197.390 53.256,195.060 53.273,194.400 53.273 C 193.740 53.273,193.020 53.256,192.800 53.236 C 192.580 53.216,192.400 52.576,192.400 51.814 C 192.400 50.005,191.605 49.600,188.049 49.600 L 185.246 49.600 185.123 47.900 C 185.001 46.208,184.992 46.199,183.300 46.077 L 181.600 45.954 181.600 44.177 C 181.600 42.440,181.571 42.400,180.300 42.394 C 177.779 42.382,177.873 42.839,177.954 30.977 L 178.000 24.154 179.700 23.777 L 181.400 23.400 181.475 20.800 C 181.516 19.370,181.561 17.795,181.575 17.300 C 181.599 16.450,181.764 16.400,184.571 16.400 C 187.917 16.400,188.800 15.898,188.800 13.998 C 188.800 12.561,188.974 12.537,197.400 12.800 L 203.800 13.000 203.925 14.200 C 204.137 16.234,204.735 16.400,211.876 16.400 L 218.400 16.400 218.400 14.600 C 218.400 12.813,218.410 12.800,219.786 12.800 C 221.545 12.800,222.000 12.000,222.000 8.906 C 222.000 6.226,221.573 5.600,219.743 5.600 C 218.503 5.600,218.441 5.525,218.323 3.900 L 218.200 2.200 214.700 2.084 C 211.279 1.971,211.200 1.947,211.200 0.984 L 211.200 0.000 196.400 0.000 L 181.600 0.000 181.600 1.000 M288.098 31.900 L 288.200 63.800 295.531 63.909 L 302.862 64.018 302.789 62.909 C 302.540 59.157,302.908 29.142,303.194 29.850 C 303.416 30.399,304.042 30.794,304.968 30.968 C 306.216 31.202,306.400 31.384,306.400 32.385 C 306.400 34.370,306.759 34.800,308.420 34.800 C 309.939 34.800,309.955 34.817,310.077 36.500 C 310.199 38.184,310.216 38.201,311.855 38.321 L 313.510 38.442 313.795 41.521 C 314.127 45.108,314.423 45.600,316.249 45.600 C 317.578 45.600,317.600 45.628,317.600 47.353 C 317.600 49.200,318.055 49.581,320.277 49.595 C 321.022 49.599,321.173 49.856,321.277 51.300 C 321.399 52.984,321.415 53.001,323.057 53.121 L 324.715 53.242 324.867 56.260 C 325.031 59.515,325.589 60.400,327.476 60.400 C 328.201 60.400,328.400 60.621,328.400 61.426 C 328.400 63.952,328.547 64.000,336.214 64.000 L 343.200 64.000 343.200 32.000 L 343.200 0.000 337.600 0.000 L 332.000 0.000 331.988 18.300 C 331.980 30.128,331.840 36.369,331.593 35.946 C 331.383 35.586,330.589 35.174,329.828 35.032 C 328.537 34.789,328.436 34.660,328.322 33.086 C 328.201 31.414,328.186 31.399,326.522 31.278 C 324.860 31.157,324.843 31.140,324.722 29.478 C 324.601 27.808,324.591 27.799,322.800 27.600 L 321.000 27.400 320.893 24.433 C 320.774 21.117,320.403 20.400,318.804 20.400 C 317.821 20.400,317.682 20.228,317.486 18.767 C 317.218 16.765,317.235 16.782,315.254 16.516 C 313.691 16.307,313.637 16.249,313.521 14.650 C 313.402 13.024,313.376 12.998,311.741 12.879 L 310.083 12.758 309.938 9.562 C 309.781 6.108,309.478 5.617,307.500 5.606 C 306.523 5.601,306.400 5.452,306.400 4.280 C 306.400 2.611,305.789 2.000,304.120 2.000 C 302.979 2.000,302.800 1.865,302.800 1.000 L 302.800 0.000 295.398 0.000 L 287.995 0.000 288.098 31.900 M346.800 5.626 C 346.800 13.545,345.614 12.800,358.214 12.800 L 368.800 12.800 368.800 38.409 L 368.800 64.018 376.100 63.909 L 383.400 63.800 383.503 38.300 L 383.606 12.800 391.803 12.800 L 400.000 12.800 400.000 6.400 L 400.000 0.000 373.400 0.000 L 346.800 0.000 346.800 5.626 M255.232 24.700 C 255.249 25.085,255.235 26.551,255.202 27.958 C 255.134 30.791,255.410 31.184,257.472 31.194 C 258.821 31.200,259.198 31.935,258.861 33.900 C 258.710 34.783,258.600 34.800,253.153 34.800 L 247.600 34.800 247.600 33.023 L 247.600 31.246 249.300 31.123 L 251.000 31.000 251.116 27.500 L 251.231 24.000 253.216 24.000 C 254.827 24.000,255.206 24.132,255.232 24.700 " stroke="none" fill="#fffefe" fill-rule="evenodd"></path><path id="path2" d="" stroke="none" fill="#0080ff" fill-rule="evenodd"></path><path id="path3" d="" stroke="none" fill="#0092ff" fill-rule="evenodd"></path><path id="path4" d="M0.000 6.405 L 0.000 12.811 27.623 12.795 C 48.563 12.782,55.433 12.661,56.023 12.293 C 56.735 11.848,56.800 11.317,56.800 5.904 L 56.800 0.000 28.400 0.000 L 0.000 0.000 0.000 6.405 M0.000 31.204 L 0.000 38.408 19.100 38.304 L 38.200 38.200 38.310 31.653 C 38.386 27.165,38.276 24.932,37.961 24.553 C 37.582 24.097,34.226 24.000,18.751 24.000 L 0.000 24.000 0.000 31.204 M0.000 56.795 L 0.000 64.000 27.500 63.995 C 42.625 63.992,55.396 63.883,55.880 63.753 C 56.918 63.475,57.274 51.301,56.277 50.181 C 55.887 49.743,50.691 49.640,27.900 49.617 L 0.000 49.590 0.000 56.795 " stroke="none" fill="#07a9f4" fill-rule="evenodd"></path></g></svg>